<mxfile host="Electron" modified="2023-06-28T12:54:11.518Z" agent="Mozilla/5.0 (Windows NT 10.0; Win64; x64) AppleWebKit/537.36 (KHTML, like Gecko) draw.io/21.5.0 Chrome/112.0.5615.204 Electron/24.5.1 Safari/537.36" etag="7BNbmyIMKHbGHHwWXfdn" version="21.5.0" type="device">
  <diagram name="Pagina-1" id="1x7VF6eCQj2SRGHxVvUF">
    <mxGraphModel dx="760" dy="877" grid="1" gridSize="10" guides="1" tooltips="1" connect="1" arrows="1" fold="1" page="1" pageScale="1" pageWidth="2500" pageHeight="3000" math="0" shadow="0">
      <root>
        <mxCell id="0" />
        <mxCell id="1" parent="0" />
        <mxCell id="8I2kSKeZXdc6Dw6ha97r-1" value="alt" style="shape=umlFrame;whiteSpace=wrap;html=1;pointerEvents=0;" parent="1" vertex="1">
          <mxGeometry x="20" y="150" width="900" height="300" as="geometry" />
        </mxCell>
        <mxCell id="8I2kSKeZXdc6Dw6ha97r-2" value="Client" style="html=1;whiteSpace=wrap;fontSize=16;" parent="1" vertex="1">
          <mxGeometry x="150" y="50" width="110" height="40" as="geometry" />
        </mxCell>
        <mxCell id="8I2kSKeZXdc6Dw6ha97r-3" value="Server" style="html=1;whiteSpace=wrap;fontSize=16;" parent="1" vertex="1">
          <mxGeometry x="455" y="50" width="110" height="40" as="geometry" />
        </mxCell>
        <mxCell id="8I2kSKeZXdc6Dw6ha97r-4" value="" style="shape=umlLifeline;perimeter=lifelinePerimeter;whiteSpace=wrap;html=1;container=1;dropTarget=0;collapsible=0;recursiveResize=0;outlineConnect=0;portConstraint=eastwest;newEdgeStyle={&quot;edgeStyle&quot;:&quot;elbowEdgeStyle&quot;,&quot;elbow&quot;:&quot;vertical&quot;,&quot;curved&quot;:0,&quot;rounded&quot;:0};participant=umlActor;size=0;" parent="1" vertex="1">
          <mxGeometry x="195" y="90" width="20" height="380" as="geometry" />
        </mxCell>
        <mxCell id="8I2kSKeZXdc6Dw6ha97r-5" value="" style="shape=umlLifeline;perimeter=lifelinePerimeter;whiteSpace=wrap;html=1;container=1;dropTarget=0;collapsible=0;recursiveResize=0;outlineConnect=0;portConstraint=eastwest;newEdgeStyle={&quot;edgeStyle&quot;:&quot;elbowEdgeStyle&quot;,&quot;elbow&quot;:&quot;vertical&quot;,&quot;curved&quot;:0,&quot;rounded&quot;:0};participant=umlActor;size=0;" parent="1" vertex="1">
          <mxGeometry x="500" y="90" width="20" height="390" as="geometry" />
        </mxCell>
        <mxCell id="8I2kSKeZXdc6Dw6ha97r-6" value="StartGameRequest" style="html=1;verticalAlign=bottom;endArrow=block;edgeStyle=elbowEdgeStyle;elbow=vertical;curved=0;rounded=0;fontStyle=1;" parent="1" edge="1">
          <mxGeometry x="0.0141" width="80" relative="1" as="geometry">
            <mxPoint x="204.07142857142867" y="110" as="sourcePoint" />
            <mxPoint x="509.5" y="110" as="targetPoint" />
            <Array as="points">
              <mxPoint x="470" y="110" />
              <mxPoint x="330" y="120" />
              <mxPoint x="380" y="150" />
            </Array>
            <mxPoint x="1" as="offset" />
          </mxGeometry>
        </mxCell>
        <mxCell id="8I2kSKeZXdc6Dw6ha97r-7" value="[Admin Client]" style="text;html=1;align=center;verticalAlign=middle;resizable=0;points=[];autosize=1;strokeColor=none;fillColor=none;fontStyle=1;labelBackgroundColor=default;" parent="1" vertex="1">
          <mxGeometry x="85" y="150" width="110" height="30" as="geometry" />
        </mxCell>
        <mxCell id="8I2kSKeZXdc6Dw6ha97r-8" value="&lt;div style=&quot;color: rgb(8, 8, 8);&quot;&gt;&lt;pre style=&quot;&quot;&gt;&lt;font face=&quot;Helvetica&quot;&gt;StartGameMessage&lt;/font&gt;&lt;/pre&gt;&lt;/div&gt;" style="html=1;verticalAlign=bottom;endArrow=open;dashed=1;endSize=8;edgeStyle=elbowEdgeStyle;elbow=vertical;curved=0;rounded=0;labelBackgroundColor=none;" parent="1" source="8I2kSKeZXdc6Dw6ha97r-5" target="8I2kSKeZXdc6Dw6ha97r-4" edge="1">
          <mxGeometry x="-0.0165" y="10" relative="1" as="geometry">
            <mxPoint x="625" y="210" as="sourcePoint" />
            <mxPoint x="210" y="210" as="targetPoint" />
            <Array as="points">
              <mxPoint x="460" y="240" />
              <mxPoint x="480" y="230" />
              <mxPoint x="530" y="220" />
              <mxPoint x="480" y="240" />
              <mxPoint x="530" y="260" />
              <mxPoint x="550" y="230" />
              <mxPoint x="315" y="210" />
            </Array>
            <mxPoint as="offset" />
          </mxGeometry>
        </mxCell>
        <mxCell id="8I2kSKeZXdc6Dw6ha97r-9" value="alt" style="shape=umlFrame;whiteSpace=wrap;html=1;pointerEvents=0;" parent="1" vertex="1">
          <mxGeometry x="60" y="190" width="810" height="160" as="geometry" />
        </mxCell>
        <mxCell id="8I2kSKeZXdc6Dw6ha97r-10" value="" style="line;strokeWidth=2;fillColor=none;align=left;verticalAlign=middle;spacingTop=-1;spacingLeft=3;spacingRight=3;rotatable=0;labelPosition=right;points=[];portConstraint=eastwest;strokeColor=inherit;dashed=1;" parent="1" vertex="1">
          <mxGeometry x="20" y="380" width="900" height="8" as="geometry" />
        </mxCell>
        <mxCell id="8I2kSKeZXdc6Dw6ha97r-11" value="[else]" style="text;html=1;align=center;verticalAlign=middle;resizable=0;points=[];autosize=1;strokeColor=none;fillColor=none;fontStyle=1;labelBackgroundColor=default;" parent="1" vertex="1">
          <mxGeometry x="105" y="400" width="50" height="30" as="geometry" />
        </mxCell>
        <mxCell id="8I2kSKeZXdc6Dw6ha97r-12" value="[NumPlayers in Lobby = Lobby size]" style="text;html=1;align=center;verticalAlign=middle;resizable=0;points=[];autosize=1;strokeColor=none;fillColor=none;fontStyle=1;labelBackgroundColor=default;" parent="1" vertex="1">
          <mxGeometry x="115" y="190" width="230" height="30" as="geometry" />
        </mxCell>
        <mxCell id="8I2kSKeZXdc6Dw6ha97r-13" value="" style="line;strokeWidth=1;fillColor=none;align=left;verticalAlign=middle;spacingTop=-1;spacingLeft=3;spacingRight=3;rotatable=0;labelPosition=right;points=[];portConstraint=eastwest;strokeColor=inherit;dashed=1;" parent="1" vertex="1">
          <mxGeometry x="62.5" y="286" width="807.5" height="8" as="geometry" />
        </mxCell>
        <mxCell id="8I2kSKeZXdc6Dw6ha97r-14" value="[else]" style="text;html=1;align=center;verticalAlign=middle;resizable=0;points=[];autosize=1;strokeColor=none;fillColor=none;fontStyle=1;labelBackgroundColor=default;" parent="1" vertex="1">
          <mxGeometry x="126.5" y="300" width="50" height="30" as="geometry" />
        </mxCell>
        <mxCell id="8I2kSKeZXdc6Dw6ha97r-15" value="&lt;div style=&quot;color: rgb(8, 8, 8);&quot;&gt;&lt;pre style=&quot;&quot;&gt;&lt;font face=&quot;Helvetica&quot;&gt;GameNotReadyMessage&lt;/font&gt;&lt;/pre&gt;&lt;/div&gt;" style="html=1;verticalAlign=bottom;endArrow=open;dashed=1;endSize=8;edgeStyle=elbowEdgeStyle;elbow=vertical;curved=0;rounded=0;labelBackgroundColor=none;" parent="1" source="8I2kSKeZXdc6Dw6ha97r-5" target="8I2kSKeZXdc6Dw6ha97r-4" edge="1">
          <mxGeometry x="-0.0165" y="10" relative="1" as="geometry">
            <mxPoint x="633.5" y="322" as="sourcePoint" />
            <mxPoint x="208.5" y="322" as="targetPoint" />
            <Array as="points">
              <mxPoint x="460" y="330" />
              <mxPoint x="420" y="320" />
              <mxPoint x="506.5" y="322" />
              <mxPoint x="541.5" y="332" />
              <mxPoint x="561.5" y="302" />
              <mxPoint x="326.5" y="282" />
            </Array>
            <mxPoint as="offset" />
          </mxGeometry>
        </mxCell>
        <mxCell id="8I2kSKeZXdc6Dw6ha97r-16" value="&lt;div style=&quot;color: rgb(8, 8, 8);&quot;&gt;&lt;pre style=&quot;&quot;&gt;&lt;font face=&quot;Helvetica&quot;&gt;NotAdminMessage&lt;/font&gt;&lt;/pre&gt;&lt;/div&gt;" style="html=1;verticalAlign=bottom;endArrow=block;endSize=8;edgeStyle=elbowEdgeStyle;elbow=vertical;curved=0;rounded=0;labelBackgroundColor=none;endFill=1;" parent="1" edge="1" target="8I2kSKeZXdc6Dw6ha97r-4" source="8I2kSKeZXdc6Dw6ha97r-5">
          <mxGeometry x="-0.0165" y="10" relative="1" as="geometry">
            <mxPoint x="450" y="420" as="sourcePoint" />
            <mxPoint x="204.5" y="420" as="targetPoint" />
            <Array as="points">
              <mxPoint x="280" y="430" />
              <mxPoint x="470" y="430" />
              <mxPoint x="265" y="380" />
              <mxPoint x="315" y="400" />
              <mxPoint x="335" y="370" />
              <mxPoint x="100" y="350" />
            </Array>
            <mxPoint as="offset" />
          </mxGeometry>
        </mxCell>
        <mxCell id="8I2kSKeZXdc6Dw6ha97r-17" value="&lt;div style=&quot;color: rgb(8, 8, 8);&quot;&gt;&lt;pre style=&quot;&quot;&gt;&lt;font face=&quot;Helvetica&quot;&gt;PersonalGoalCardMessage&lt;/font&gt;&lt;/pre&gt;&lt;/div&gt;" style="html=1;verticalAlign=bottom;endArrow=block;endSize=8;edgeStyle=elbowEdgeStyle;elbow=vertical;curved=0;rounded=0;labelBackgroundColor=none;endFill=1;" parent="1" edge="1">
          <mxGeometry x="-0.0165" y="10" relative="1" as="geometry">
            <mxPoint x="509.5" y="269.29" as="sourcePoint" />
            <mxPoint x="204.07142857142867" y="269.29" as="targetPoint" />
            <Array as="points">
              <mxPoint x="460" y="269.29" />
              <mxPoint x="430" y="259.29" />
              <mxPoint x="380" y="279.29" />
              <mxPoint x="430" y="299.29" />
              <mxPoint x="450" y="269.29" />
              <mxPoint x="215" y="249.29" />
            </Array>
            <mxPoint as="offset" />
          </mxGeometry>
        </mxCell>
        <mxCell id="KtKdjFCmQ80yRntKPQwW-2" value="PreGameController" style="html=1;whiteSpace=wrap;fontSize=16;" vertex="1" parent="1">
          <mxGeometry x="730" y="50" width="150" height="40" as="geometry" />
        </mxCell>
        <mxCell id="KtKdjFCmQ80yRntKPQwW-3" value="" style="shape=umlLifeline;perimeter=lifelinePerimeter;whiteSpace=wrap;html=1;container=1;dropTarget=0;collapsible=0;recursiveResize=0;outlineConnect=0;portConstraint=eastwest;newEdgeStyle={&quot;edgeStyle&quot;:&quot;elbowEdgeStyle&quot;,&quot;elbow&quot;:&quot;vertical&quot;,&quot;curved&quot;:0,&quot;rounded&quot;:0};participant=umlActor;size=0;" vertex="1" parent="1">
          <mxGeometry x="795" y="90" width="20" height="390" as="geometry" />
        </mxCell>
        <mxCell id="KtKdjFCmQ80yRntKPQwW-4" value="onStartGameRequest()" style="html=1;verticalAlign=bottom;endArrow=block;edgeStyle=elbowEdgeStyle;elbow=vertical;curved=0;rounded=0;" edge="1" parent="1" source="8I2kSKeZXdc6Dw6ha97r-5">
          <mxGeometry x="0.0232" width="80" relative="1" as="geometry">
            <mxPoint x="580" y="120" as="sourcePoint" />
            <mxPoint x="806" y="120" as="targetPoint" />
            <Array as="points">
              <mxPoint x="731" y="120" />
              <mxPoint x="567.5" y="150" />
              <mxPoint x="337.5" y="160" />
              <mxPoint x="357.5" y="240" />
              <mxPoint x="567.5" y="260" />
              <mxPoint x="487.5" y="270" />
              <mxPoint x="558.5" y="280" />
              <mxPoint x="524.5" y="300" />
            </Array>
            <mxPoint as="offset" />
          </mxGeometry>
        </mxCell>
        <mxCell id="KtKdjFCmQ80yRntKPQwW-7" value="&lt;div style=&quot;color: rgb(8, 8, 8);&quot;&gt;&lt;pre style=&quot;&quot;&gt;&lt;font face=&quot;Helvetica&quot;&gt;sendMessage()&lt;/font&gt;&lt;/pre&gt;&lt;/div&gt;" style="html=1;verticalAlign=bottom;endArrow=open;dashed=1;endSize=8;edgeStyle=elbowEdgeStyle;elbow=vertical;curved=0;rounded=0;labelBackgroundColor=none;" edge="1" parent="1" source="KtKdjFCmQ80yRntKPQwW-3" target="8I2kSKeZXdc6Dw6ha97r-5">
          <mxGeometry x="-0.0029" y="10" relative="1" as="geometry">
            <mxPoint x="756" y="414.29" as="sourcePoint" />
            <mxPoint x="530" y="414.29" as="targetPoint" />
            <Array as="points">
              <mxPoint x="631" y="414.29" />
              <mxPoint x="361" y="424.6200000000001" />
              <mxPoint x="151" y="434.6200000000001" />
              <mxPoint x="171" y="544.6200000000001" />
            </Array>
            <mxPoint as="offset" />
          </mxGeometry>
        </mxCell>
        <mxCell id="KtKdjFCmQ80yRntKPQwW-8" value="&lt;div style=&quot;color: rgb(8, 8, 8);&quot;&gt;&lt;pre style=&quot;&quot;&gt;&lt;font face=&quot;Helvetica&quot;&gt;sendMessage()&lt;/font&gt;&lt;/pre&gt;&lt;/div&gt;" style="html=1;verticalAlign=bottom;endArrow=open;dashed=1;endSize=8;edgeStyle=elbowEdgeStyle;elbow=vertical;curved=0;rounded=0;labelBackgroundColor=none;" edge="1" parent="1">
          <mxGeometry x="-0.0029" y="10" relative="1" as="geometry">
            <mxPoint x="806" y="314.29" as="sourcePoint" />
            <mxPoint x="510" y="314.29" as="targetPoint" />
            <Array as="points">
              <mxPoint x="632" y="314.58000000000004" />
              <mxPoint x="362" y="324.91000000000014" />
              <mxPoint x="152" y="334.91000000000014" />
              <mxPoint x="172" y="444.91000000000014" />
            </Array>
            <mxPoint as="offset" />
          </mxGeometry>
        </mxCell>
        <mxCell id="KtKdjFCmQ80yRntKPQwW-9" value="&lt;div style=&quot;color: rgb(8, 8, 8);&quot;&gt;&lt;pre style=&quot;&quot;&gt;&lt;font face=&quot;Helvetica&quot;&gt;startGame()&lt;/font&gt;&lt;/pre&gt;&lt;/div&gt;" style="html=1;verticalAlign=bottom;endArrow=open;dashed=1;endSize=8;edgeStyle=elbowEdgeStyle;elbow=vertical;curved=0;rounded=0;labelBackgroundColor=none;" edge="1" parent="1">
          <mxGeometry x="-0.0029" y="10" relative="1" as="geometry">
            <mxPoint x="806" y="220" as="sourcePoint" />
            <mxPoint x="510" y="220" as="targetPoint" />
            <Array as="points">
              <mxPoint x="632" y="220.29000000000002" />
              <mxPoint x="362" y="230.62000000000012" />
              <mxPoint x="152" y="240.62000000000012" />
              <mxPoint x="172" y="350.6200000000001" />
            </Array>
            <mxPoint as="offset" />
          </mxGeometry>
        </mxCell>
      </root>
    </mxGraphModel>
  </diagram>
</mxfile>
